# xmcd
#
# Track frame offsets:
#	150
#	19649
#	33023
#	52102
#	72216
#	87440
#	107013
#	126983
#	147865
#	167889
#
# Disc length: 2453 seconds
#
# Revision: 0
# Processed by: cddbd v1.5.2PL0 Copyright (c) Steve Scherf et al.
# Submitted via: EasyCDDAExtractor 15.3.0.1
#
DISCID=8509930a
DTITLE=Olga Tañon - 20 Grandes Exitos - CD 2
DYEAR=2010
DGENRE=Latin
TTITLE0=¡Basta Ya!
TTITLE1=Me Subes, Me Bajas, Me Subes
TTITLE2=El Frio De Tu Adios
TTITLE3=Tu Amor
TTITLE4=Hielo Y Fuego
TTITLE5=Engañame
TTITLE6=Ah-Ah, O-No
TTITLE7=Como Olvidar
TTITLE8=Asi Es La Vida
TTITLE9=Por Tu Amor
EXTD=
EXTT0=
EXTT1=
EXTT2=
EXTT3=
EXTT4=
EXTT5=
EXTT6=
EXTT7=
EXTT8=
EXTT9=
PLAYORDER=
